<svg xmlns="http://www.w3.org/2000/svg" width="24" height="21" fill="none" viewBox="0 0 24 21">
  <path stroke="#fff" stroke-width="2.5" d="M2 18.25V14.5c0-.69.56-1.25 1.25-1.25h1.566c.331 0 .649.132.883.366l.31.31c.234.234.552.366.884.366H8.25c.69 0 1.25.56 1.25 1.25v2.708c0 .69-.56 1.25-1.25 1.25h-5c-.69 0-1.25-.56-1.25-1.25Zm12.5 0V14.5c0-.69.56-1.25 1.25-1.25h1.566c.331 0 .649.132.884.366l.309.31c.234.234.552.366.884.366h1.357c.69 0 1.25.56 1.25 1.25v2.708c0 .69-.56 1.25-1.25 1.25h-5c-.69 0-1.25-.56-1.25-1.25ZM2 7V3.25C2 2.56 2.56 2 3.25 2h1.566c.331 0 .649.132.883.366l.31.31c.234.234.552.366.884.366H8.25c.69 0 1.25.56 1.25 1.25V7c0 .69-.56 1.25-1.25 1.25h-5C2.56 8.25 2 7.69 2 7Zm12.5 0V3.25c0-.69.56-1.25 1.25-1.25h1.566c.331 0 .649.132.884.366l.309.31c.234.234.552.366.884.366h1.357c.69 0 1.25.56 1.25 1.25V7c0 .69-.56 1.25-1.25 1.25h-5c-.69 0-1.25-.56-1.25-1.25Z"/>
</svg>
